<svg width="370" height="445" viewBox="0 0 370 445" fill="none" xmlns="http://www.w3.org/2000/svg">
<path d="M325.655 0H325.54H317.456H317.341V0.46114H317.225H313.299H313.184V0.92228H313.068H310.989H310.874V1.38342H310.758H309.142H309.026V1.84456H308.911H307.294H307.179V2.3057H307.063H305.908H305.793V2.76684H305.677H304.522H304.407V3.22798H303.483V3.68912H303.368H302.213H302.097V4.15026H301.174V4.6114H300.25V5.07254H299.326V5.53368H298.402V5.99482C298.287 5.99482 298.017 5.99482 297.594 5.99482H297.478V6.45596H296.554V6.9171H295.63V7.37824H295.169V7.83938H294.245V8.30052H293.783V8.76166H292.859V9.2228H292.397V9.68394H291.473V10.1451H291.011V10.6062H290.549V11.0674H289.625V11.5285H289.164V11.9896H288.702V12.4508H288.24V12.9119H287.778V13.3731H287.316V13.8342H286.854V14.2953H285.93V14.7565H285.468V15.2176H285.006V15.6788H284.544V16.1399H284.082V16.601H283.62V17.0622H283.159V17.5233H282.235V17.9845H281.773V18.4456H281.311V18.9067H280.849V19.3679H280.387V19.829H279.463V20.2902H279.001V20.7513H278.539V21.2124H278.077V21.6736H277.615V22.1347H277.154V22.5959H276.692V23.057H276.23V23.5181H275.768V23.9793H275.306V24.4404H274.844V24.9016H273.92V25.3627H273.458V25.8238H272.996V26.285H272.534V26.7461H271.61V27.2073H271.149V27.6684H270.687V28.1295H270.225V28.5907H269.763V29.0518H269.301V29.513H268.839V29.9741H268.377V30.4352H267.915V30.8964H266.991V31.3575H266.529V31.8187H266.067V32.2798H265.605V32.7409H265.144V33.2021H264.682V33.6632H264.22V34.1244H263.296V34.5855H262.834V35.0466H262.372V35.5078H261.91V35.9689H261.448V36.43H260.986V36.8912H260.062V37.3523H259.601V37.8135H259.139V38.2746H258.677V38.7358H258.215V39.1969H257.753V39.658H257.291V40.1192H256.367V40.5803H255.905V41.0415H255.443V41.5026H254.981V41.9637H254.519V42.4249H254.057V42.886H253.596V43.3471H252.672V43.8083H252.21V44.2694H251.748V44.7306H251.286V45.1917H250.824V45.6528H249.9V46.114H249.438V46.5751H248.976V47.0363H248.514V47.4974H248.052V47.9585H247.591V48.4197H246.667V48.8808H246.205V49.342H245.743V49.8031H245.281V50.2642H244.819V50.7254H244.357V51.1865H243.895V51.6477H242.971V52.1088H242.509V52.5699H242.047V53.0311H241.586V53.4922H241.124V53.9534H240.662V54.4145H240.2V54.8756H239.738V55.3368H238.814V55.7979H238.352V56.2591H237.89V56.7202H237.428V57.1813H236.966V57.6425H236.504V58.1036H236.042V58.5648H235.119V59.0259H234.657V59.487H234.195V59.9482H233.733V60.4093H233.271V60.8705H232.809V61.3316H232.347V61.7927H231.423V62.2539H230.961V62.715H230.499V63.1762H230.037V63.6373H229.114V64.0984H228.652V64.5596H228.19V65.0207H227.728V65.4819H227.266V65.943H226.804V66.4041H226.342V66.8653H225.88V67.3264H225.418V67.7876H224.494V68.2487H224.032V68.7098H223.571V69.171H223.109V69.6321H222.647V70.0933H222.185V70.5544H221.261V71.0155H220.799V71.4767H220.337V71.9378H219.875V72.399H219.413V72.8601H218.951V73.3212H218.489V73.7824H218.027V74.2435H217.566V74.7047H216.642V75.1658H216.18V75.6269H215.718V76.0881H215.256V76.5492H214.794V77.0104H214.332V77.4715H213.408V77.9326H212.946V78.3938H212.484V78.8549H212.022V79.3161H211.561V79.7772H211.099V80.2383H210.637V80.6995H210.175V81.1606H209.251V81.6218H208.789V82.0829H208.327V82.544H207.865V83.0052H207.403V83.4663H206.941V83.9275H206.017V84.3886H205.556V84.8497H205.094V85.3109H204.632V85.772H204.17V86.2332H203.708V86.6943H203.246V87.1554H202.322V87.6166H201.86V88.0777H201.398V88.5389H200.936V89H200.474V89.4611H200.012V89.9223H199.089V90.3834H198.627V90.8446H198.165V91.3057H197.703V91.7668H197.241V92.228H196.779V92.6891H195.855V93.1503H195.393V93.6114H194.931V94.0725H194.469V94.5337H194.007V94.9948H193.546V95.456H193.084V95.9171H192.622V96.3782H191.698V96.8394H191.236V97.3005H190.774V97.7617H190.312V98.2228H189.85V98.6839H189.388V99.1451H188.926V99.6062H188.003V100.067H187.541V100.528H187.079V100.99H186.617V101.451H186.155V101.912H185.693V102.373H185.231V102.834H184.769V103.295H183.845V103.756H183.383V104.218H182.921V104.679H182.459V105.14H181.998V105.601H181.536V106.062H181.074V106.523H180.612V106.984H179.688V107.446H179.226V107.907H178.764V108.368H178.302V108.829H177.84V109.29H176.916V109.751H176.454V110.212H175.993V110.674H175.531V111.135H175.069V111.596H174.607V112.057H174.145V112.518H173.683V112.979H173.221V113.44H172.297V113.902H171.835V114.363H171.373V114.824H170.911V115.285H170.449V115.746H169.526V116.207H169.064V116.668H168.602V117.13H168.14V117.591H167.678V118.052H167.216V118.513H166.754V118.974H165.83V119.435H165.368V119.896H164.906V120.358H164.444V120.819H163.983V121.28H163.521V121.741H163.059V122.202H162.135V122.663H161.673V123.124H161.211V123.585H160.749V124.047H160.287V124.508H159.825V124.969H159.363V125.43H158.901V125.891H157.978V126.352H157.516V126.813H157.054V127.275H156.592V127.736H156.13V128.197H155.668V128.658H155.206V129.119H154.282V129.58H153.82V130.041H153.358V130.503H152.896V130.964H152.434V131.425H151.973V131.886H151.049V132.347H150.587V132.808H150.125V133.269H149.663V133.731H149.201V134.192H148.739V134.653H148.277V135.114H147.353V135.575H146.891V136.036H146.429V136.497H145.968V136.959H145.506V137.42H145.044V137.881H144.582V138.342H143.658V138.803H143.196V139.264H142.734V139.725H142.272V140.187H141.81V140.648H141.348V141.109H140.886V141.57H139.963V142.031H139.501V142.492H139.039V142.953H138.577V143.415H138.115V143.876H137.653V144.337H136.729V144.798H136.267V145.259H135.805V145.72H135.343V146.181H134.881V146.642H134.419V147.104H133.958V147.565H133.496V148.026H132.572V148.487H132.11V148.948H131.648V149.409H131.186V149.87H130.724V150.332H130.262V150.793H129.8V151.254H128.876V151.715H128.414V152.176H127.953V152.637H127.491V153.098H127.029V153.56H126.567V154.021H126.105V154.482H125.181V154.943H124.719V155.404H124.257V155.865H123.795V156.326H123.333V156.788H122.871V157.249H122.41V157.71H121.948V158.171H121.486V158.632H120.562V159.093H120.1V159.554H119.638V160.016H119.176V160.477H118.252V160.938H117.79V161.399H117.328V161.86H116.866V162.321H116.404V162.782H115.943V163.244H115.481V163.705H115.019V164.166H114.557V164.627H114.095V165.088H113.171V165.549H112.709V166.01H112.247V166.471H111.785V166.933H110.861V167.394H110.4V167.855H109.938V168.316H109.476V168.777H109.014V169.238H108.552V169.699H108.09V170.161H107.166V170.622H106.704V171.083H106.242V171.544H105.78V172.005H105.318V172.466H104.856V172.927H104.395V173.389H103.933V173.85H103.009V174.311H102.547V174.772H102.085V175.233H101.623V175.694H101.161V176.155H100.699V176.617H100.237V177.078H99.3134V177.539H98.8514V178H98.3895V178.461H97.9276V178.922H97.4657V179.383H97.0038V179.845H96.5418V180.306H95.618V180.767H95.1561V181.228H94.6942V181.689H94.2322V182.15H93.7703V182.611H93.3084V183.073H92.3845V183.534H91.9226V183.995H91.4607V184.456H90.9987V184.917H90.5368V185.378H90.0749V185.839H89.613V186.301H89.1511V186.762H88.2272V187.223H87.7653V187.684H87.3034V188.145H86.8415V188.606H86.3795V189.067H85.4557V189.528H84.9938V189.99H84.5318V190.451H84.0699V190.912H83.608V191.373H83.1461V191.834H82.6841V192.295H82.2222V192.756H81.2984V193.218H80.8365V193.679H80.3745V194.14H79.9126V194.601H79.4507V195.062H78.9888V195.523H78.0649V195.984H77.603V196.446H77.1411V196.907H76.6792V197.368H76.2172V197.829H75.7553V198.29H75.2934V198.751H74.3695V199.212H73.9076V199.674H73.4457V200.135H72.9838V200.596H72.5219V201.057H72.0599V201.518H71.598V201.979H70.6742V202.44H70.2122V202.902H69.7503V203.363H69.2884V203.824H68.8265V204.285H68.3646V204.746H67.9026V205.207H67.4407V205.668H66.9788V206.13H66.5169V206.591H65.593V207.052H65.1311V207.513H64.6692V207.974H64.2072V208.435H63.7453V208.896H63.2834V209.358H62.3596V209.819H61.8976V210.28H61.4357V210.741H60.9738V211.202H60.5119V211.663H60.05V212.124H59.588V212.585H58.6642V213.047H58.2022V213.508H57.7403V213.969H57.2784V214.43H56.8165V214.891H56.3546V215.352H55.8926V215.813H55.4307V216.275H54.5069V216.736H54.045V217.197H53.583V217.658H53.1211V218.119H52.6592V218.58H51.7354V219.041H51.2734V219.503H50.8115V219.964H50.3496V220.425H49.8876V220.886H49.4257V221.347H48.9638V221.808H48.0399V222.269H47.578V222.731H47.1161V223.192H46.6542V223.653H46.1923V224.114H45.7303V224.575H45.2684V225.036H44.8065V225.497H43.8827V225.959H43.4207V226.42H42.9588V226.881H42.4969V227.342H42.035V227.803H41.573V228.264H41.1111V228.725H40.1873V229.187H39.7253V229.648H39.2634V230.109H38.8015V230.57H38.3396V231.031H37.8777V231.492H37.4157V231.953H36.9538V232.415H36.03V232.876H35.5681V233.337H35.1061V233.798H34.6442V234.259H34.1823V234.72H33.7204V235.181H33.2584V235.642H32.7965V236.104H31.8727V236.565H31.4107V237.026H30.9488V237.487H30.4869V237.948H30.025V238.409H29.563V238.87H29.1011V239.332H28.1773V239.793H27.7154V240.254H27.2534V240.715H26.7915V241.176H25.8677V241.637H25.4058V242.098H24.9438V242.56H24.4819V243.021H24.02V243.482H23.5581V243.943H23.0961V244.404H22.6342V244.865H22.1723V245.326H21.2484V245.788H20.7865V246.249H20.3246V246.71H19.8627V247.171H19.4008V247.632H18.9388V248.093H18.015V248.554H17.5531V249.016H17.0912V249.477H16.6292V249.938H16.1673V250.399H15.7054V250.86H14.7815V251.321H14.3196V251.782H13.8577V252.244H13.3958V252.705H12.9338V253.166H12.4719V253.627H12.01V254.088H11.5481V254.549H11.0862V255.01H10.6242V255.471H10.1623V255.933H9.70038V256.394H9.23846V256.855H8.77655V257.316H8.31461V257.777H7.85269V258.699H7.39078V259.161H6.92883V259.622H6.46692V260.544H6.005V261.005H5.54309C5.54309 261.12 5.54309 261.389 5.54309 261.812V261.927H5.08115V262.85H4.61923V263.311H4.15732V264.233H3.6954V265.155H3.23346V265.271V266.424V266.539H2.77155V267.461H2.30963V267.576V268.729V268.845H1.84769V268.96V270.113V270.228H1.38577V270.343V271.496V271.611H0.923859V271.727V273.341V273.456H0.461945V273.571V276.569V276.684H0V276.799V284.869V284.984H0.461945V285.1V288.097V288.212H0.923859V288.328V290.403V290.518H1.38577V290.633V291.786V291.902H1.84769V292.017V293.17V293.285H2.30963V294.207H2.77155V294.323V295.475V295.591H3.23346V296.513H3.6954V297.435H4.15732C4.15732 297.551 4.15732 297.82 4.15732 298.242V298.358H4.61923V299.28H5.08115V299.741H5.54309C5.54309 299.856 5.54309 300.125 5.54309 300.548V300.663H6.005V301.585H6.46692V302.047H6.92883V302.508H7.39078V303.43H7.85269V303.891H8.31461V304.352H8.77655V304.813H9.23846V305.275H9.70038V306.197H10.1623V306.658H10.6242V307.119H11.0862V307.58H11.5481V308.041H12.01V308.503H12.9338V308.964H13.3958V309.425H13.8577V309.886H14.3196V310.347H14.7815V310.808H15.2435V311.269H16.1673V311.731H16.6292V312.192H17.5531V312.653H18.015V313.114H18.9388V313.575H19.8627V314.036H20.7865V314.497H21.7104V314.959H22.6342V315.42H23.5581V315.881H24.4819V316.342H24.5974H25.7522H25.8677V316.803H26.7915V317.264H26.907H28.5237H28.6392V317.725H28.7547H29.9095H30.025V318.187H30.1405H32.2191H32.3346V318.648H32.4501H37.3003H37.4157V319.109H37.5312H175.415H175.531V319.57H175.646H180.034H180.15V320.031H180.265H182.344H182.459V320.492H182.575H184.654H184.769V320.953H184.885H186.501H186.617V321.414H186.732H187.887H188.003V321.876H188.118H189.273H189.388V322.337H189.504H190.659H190.774V322.798H191.698V323.259H192.622V323.72H193.546V324.181H194.469V324.642C194.585 324.642 194.854 324.642 195.278 324.642H195.393V325.104H196.317V325.565H196.779V326.026H197.703V326.487H198.165V326.948C198.28 326.948 198.55 326.948 198.973 326.948H199.089V327.409H200.012V327.87H200.474V328.332H200.936V328.793H201.86V329.254H202.322V329.715H202.784V330.176H203.246V330.637H203.708V331.098H204.17V331.56H204.632V332.021H205.094V332.482H205.556V332.943H206.017V333.404H206.479V333.865H206.941V334.326H207.403V334.788H207.865V335.249H208.327V335.71H208.789V336.171H209.251V336.632H209.713V337.093H210.175V337.554H210.637V338.016H211.099V338.477H211.561V338.938H212.022V339.399H212.484V339.86H212.946V340.321H213.408V341.244H213.87V341.705H214.332V342.166H214.794V342.627H215.256V343.088H215.718V343.549H216.18V344.01H216.642V344.471H217.104V344.933H217.566V345.394H218.027V345.855H218.489V346.316H218.951V346.777H219.413V347.238H219.875V347.699H220.337V348.161H220.799V348.622H221.261V349.083H221.723V349.544H222.185V350.005H222.647V350.466H223.109V350.927H223.571V351.389H224.032V351.85H224.494V352.311H224.956V352.772H225.418V353.694H225.88V354.155H226.342V354.617H226.804V355.078H227.266V355.539H227.728V356H228.19V356.461H228.652V356.922H229.114V357.383H229.576V357.845H230.037V358.306H230.499V358.767H230.961V359.228H231.423V359.689H231.885V360.15H232.347V361.073H232.809V361.534H233.271V361.995H233.733V362.456H234.195V362.917H234.657V363.378H235.119V363.839H235.581V364.301H236.042V364.762H236.504V365.223H236.966V365.684H237.428V366.145H237.89V366.606H238.352V367.067H238.814V367.529H239.276V367.99H239.738V368.451H240.2V368.912H240.662V369.834H241.124V370.295H241.586V370.756H242.047V371.218H242.509V371.679H242.971V372.14H243.433V372.601H243.895V373.062H244.357V373.523H244.819V373.984H245.281V374.446H245.743V374.907H246.205V375.368H246.667V375.829H247.129V376.29H247.591V376.751H248.052V377.212H248.514V378.135H248.976V378.596H249.438V379.057H249.9V379.518H250.362V379.979H250.824V380.44H251.286V380.902H251.748V381.363H252.21V381.824H252.672V382.285H253.134V382.746H253.596V383.207H254.057V383.668H254.519V384.13H254.981V384.591H255.443V385.052H255.905V385.513H256.367V385.974H256.829V386.896H257.291V387.358H257.753V387.819H258.215V388.28H258.677V388.741H259.139V389.202H259.601V389.663H260.062V390.124H260.524V390.585H260.986V391.047H261.448V391.508H261.91V391.969H262.372V392.43H262.834V392.891H263.296V393.352H263.758V393.813H264.22V394.275H264.682V394.736H265.144V395.197H265.605V395.658H266.067V396.119H266.529V396.58H266.991V397.041H267.453V397.503H267.915V397.964H268.377V398.425H268.839V398.886H269.301V399.347H269.763V400.269H270.225V400.731H270.687V401.192H271.149V401.653H271.61V402.114H272.072V402.575H272.534V403.036H272.996V403.497H273.458V403.959H273.92V404.42H274.382V404.881H274.844V405.342H275.306V405.803H275.768V406.264H276.23V406.725H276.692V407.187H277.154V407.648H277.615V408.109H278.077V408.57H278.539V409.031H279.001V409.492H279.463V409.953H279.925V410.414H280.387V410.876H280.849V411.337H281.311V411.798H281.773V412.72H282.235V413.181H282.697V413.642H283.159V414.104H283.62V414.565H284.082V415.026H284.544V415.487H285.006V415.948H285.468V416.409H285.93V416.87H286.392V417.332H286.854V417.793H287.316V418.254H287.778V418.715H288.24V419.176H288.702V419.637H289.164V420.098H289.625V420.56H290.087V421.021H290.549V421.482H291.011V421.943H291.473V422.404H291.935V423.326H292.397V423.788H292.859V424.249H293.321V424.71H294.245V425.171H294.707V425.632H295.169V426.093H295.63V426.554H296.092V427.477H296.554V427.938H297.016V428.399H297.478V428.86H297.94V429.321H298.402V429.782H298.864V430.244H299.326V430.705H299.788V431.166H300.25V431.627H300.712V432.088H301.174V432.549H301.635V433.01H302.097V433.471H303.021V433.933H303.483V434.394H303.945V434.855H304.407V435.316H304.869V435.777H305.331V436.238H306.255V436.699H306.717V437.161H307.179V437.622H308.102V438.083H308.564V438.544H309.488V439.005H309.95V439.466H310.874V439.927H311.798V440.389H312.722V440.85H313.645V441.311H314.569V441.772H315.493V442.233H316.417V442.694H316.532H317.687H317.803V443.155H317.918H319.073H319.189V443.617H319.304H320.459H320.574V444.078H320.69H322.768H322.884V444.539H322.999H325.078H325.194V445H325.309H336.626H336.742V444.539H336.857H338.936H339.051V444.078H339.167H340.783H340.899V443.617H341.014H342.631H342.747V443.155H343.67V442.694H343.786H344.941H345.056V442.233H345.172H346.326H346.442V441.772H347.366V441.311H348.29V440.85C348.405 440.85 348.675 440.85 349.098 440.85H349.213V440.389H350.137V439.927H350.599V439.466H351.523V439.005H351.985V438.544H352.909V438.083H353.371V437.622H354.295V437.161H354.757V436.699H355.218V436.238H355.68V435.777H356.604V435.316H357.066V434.855H357.528V434.394H357.99V433.933H358.452V433.471H358.914V433.01H359.376V432.549H359.838V432.088H360.3V431.627H360.762V430.705H361.223V430.244H361.685V429.782H362.147V429.321H362.609V428.399H363.071V427.938H363.533C363.533 427.823 363.533 427.554 363.533 427.131V427.016H363.995V426.093H364.457V425.632H364.919V424.71H365.381V423.788H365.843V422.865H366.305V421.943H366.767V421.021H367.228V420.905V419.753V419.637H367.69V419.522V418.369V418.254H368.152V417.332H368.614V417.216V415.602V415.487H369.076V415.372V413.758V413.642H369.538V413.527V410.069V409.953H370V409.838V42.079V41.9637H369.538V41.8484V39.3122V39.1969H369.076V39.0816V37.0065V36.8912H368.614V36.7759V35.6231V35.5078H368.152V35.3925V33.7785V33.6632H367.69V33.5479V32.3951V32.2798H367.228V32.1645V31.0117V30.8964H366.767V30.7811V29.6282V29.513H366.305V28.5907H365.843V28.4754V27.3225V27.2073H365.381V26.285H364.919V25.8238H364.457V24.9016H363.995C363.995 24.7863 363.995 24.5173 363.995 24.0946V23.9793H363.533V23.057H363.071V22.5959H362.609V21.6736H362.147V21.2124H361.685V20.2902H361.223V19.829H360.762V19.3679H360.3V18.4456H359.838V17.9845H359.376V17.5233H358.914V17.0622H358.452V16.1399H357.99V15.6788H357.528V15.2176H357.066V14.7565H356.604V14.2953H356.142V13.8342H355.68V13.3731H355.218V12.9119H354.757V12.4508H354.295V11.9896H353.833V11.5285H352.909V11.0674H352.447V10.6062H351.985V10.1451H351.523V9.68394H350.599V9.2228H350.137V8.76166H349.213V8.30052H348.752V7.83938H347.828V7.37824H347.366V6.9171H346.442V6.45596H345.518V5.99482H344.594V5.53368H344.132V5.07254H343.208V4.6114H343.093H341.938H341.823V4.15026H340.899V3.68912H340.783H339.629H339.513V3.22798H339.398H338.243H338.127V2.76684H337.203V2.3057H337.088H335.471H335.356V1.84456H335.24H334.086H333.97V1.38342H333.855H332.238H332.122V0.92228H332.007H329.466H329.351V0.46114H329.235H325.771H325.655V0Z" fill="#7C3AED"/>
</svg>
